<svg xmlns="http://www.w3.org/2000/svg" viewBox="0 0 800 880" width="800" height="880" data-numero="43">
<rect width="800" height="880" fill="#0d1117"/>
<circle cx="400" cy="400" r="360" fill="none" stroke="#30363d" stroke-width="1"/>
<g stroke-width="0.8" stroke-opacity="0.75" stroke-linecap="round">
<line x1="409.42" y1="40.12" x2="728.88" y2="253.57" stroke="hsl(2 85% 62%)"/>
<line x1="418.84" y1="40.49" x2="667.53" y2="640.89" stroke="hsl(3 85% 62%)"/>
<line x1="428.25" y1="41.11" x2="288.75" y2="742.38" stroke="hsl(5 85% 62%)"/>
<line x1="437.63" y1="41.97" x2="41.97" y2="437.63" stroke="hsl(6 85% 62%)"/>
<line x1="446.99" y1="43.08" x2="220.00" y2="88.23" stroke="hsl(8 85% 62%)"/>
<line x1="456.32" y1="44.43" x2="611.60" y2="108.75" stroke="hsl(9 85% 62%)"/>
<line x1="465.60" y1="46.03" x2="752.13" y2="474.85" stroke="hsl(11 85% 62%)"/>
<line x1="474.85" y1="47.87" x2="474.85" y2="752.13" stroke="hsl(12 85% 62%)"/>
<line x1="484.04" y1="49.95" x2="108.75" y2="611.60" stroke="hsl(14 85% 62%)"/>
<line x1="493.17" y1="52.27" x2="88.23" y2="220.00" stroke="hsl(15 85% 62%)"/>
<line x1="502.25" y1="54.82" x2="437.63" y2="41.97" stroke="hsl(17 85% 62%)"/>
<line x1="511.25" y1="57.62" x2="742.38" y2="288.75" stroke="hsl(18 85% 62%)"/>
<line x1="520.17" y1="60.65" x2="640.89" y2="667.53" stroke="hsl(20 85% 62%)"/>
<line x1="529.01" y1="63.91" x2="253.57" y2="728.88" stroke="hsl(21 85% 62%)"/>
<line x1="537.77" y1="67.40" x2="40.00" y2="400.00" stroke="hsl(23 85% 62%)"/>
<line x1="546.43" y1="71.12" x2="253.57" y2="71.12" stroke="hsl(24 85% 62%)"/>
<line x1="554.98" y1="75.07" x2="640.89" y2="132.47" stroke="hsl(26 85% 62%)"/>
<line x1="563.44" y1="79.24" x2="742.38" y2="511.25" stroke="hsl(27 85% 62%)"/>
<line x1="571.78" y1="83.63" x2="437.63" y2="758.03" stroke="hsl(29 85% 62%)"/>
<line x1="580.00" y1="88.23" x2="88.23" y2="580.00" stroke="hsl(30 85% 62%)"/>
<line x1="588.10" y1="93.05" x2="108.75" y2="188.40" stroke="hsl(32 85% 62%)"/>
<line x1="596.07" y1="98.08" x2="474.85" y2="47.87" stroke="hsl(33 85% 62%)"/>
<line x1="603.91" y1="103.31" x2="752.13" y2="325.15" stroke="hsl(35 85% 62%)"/>
<line x1="611.60" y1="108.75" x2="611.60" y2="691.25" stroke="hsl(36 85% 62%)"/>
<line x1="619.15" y1="114.39" x2="220.00" y2="711.77" stroke="hsl(38 85% 62%)"/>
<line x1="626.56" y1="120.23" x2="41.97" y2="362.37" stroke="hsl(39 85% 62%)"/>
<line x1="633.80" y1="126.25" x2="288.75" y2="57.62" stroke="hsl(41 85% 62%)"/>
<line x1="640.89" y1="132.47" x2="667.53" y2="159.11" stroke="hsl(42 85% 62%)"/>
<line x1="647.81" y1="138.87" x2="728.88" y2="546.43" stroke="hsl(44 85% 62%)"/>
<line x1="654.56" y1="145.44" x2="400.00" y2="760.00" stroke="hsl(45 85% 62%)"/>
<line x1="661.13" y1="152.19" x2="71.12" y2="546.43" stroke="hsl(47 85% 62%)"/>
<line x1="667.53" y1="159.11" x2="132.47" y2="159.11" stroke="hsl(48 85% 62%)"/>
<line x1="673.75" y1="166.20" x2="511.25" y2="57.62" stroke="hsl(50 85% 62%)"/>
<line x1="679.77" y1="173.44" x2="758.03" y2="362.37" stroke="hsl(51 85% 62%)"/>
<line x1="685.61" y1="180.85" x2="580.00" y2="711.77" stroke="hsl(53 85% 62%)"/>
<line x1="691.25" y1="188.40" x2="188.40" y2="691.25" stroke="hsl(54 85% 62%)"/>
<line x1="696.69" y1="196.09" x2="47.87" y2="325.15" stroke="hsl(56 85% 62%)"/>
<line x1="701.92" y1="203.93" x2="325.15" y2="47.87" stroke="hsl(57 85% 62%)"/>
<line x1="706.95" y1="211.90" x2="691.25" y2="188.40" stroke="hsl(59 85% 62%)"/>
<line x1="711.77" y1="220.00" x2="711.77" y2="580.00" stroke="hsl(60 85% 62%)"/>
<line x1="716.37" y1="228.22" x2="362.37" y2="758.03" stroke="hsl(62 85% 62%)"/>
<line x1="720.76" y1="236.56" x2="57.62" y2="511.25" stroke="hsl(63 85% 62%)"/>
<line x1="724.93" y1="245.02" x2="159.11" y2="132.47" stroke="hsl(65 85% 62%)"/>
<line x1="728.88" y1="253.57" x2="546.43" y2="71.12" stroke="hsl(66 85% 62%)"/>
<line x1="732.60" y1="262.23" x2="760.00" y2="400.00" stroke="hsl(68 85% 62%)"/>
<line x1="736.09" y1="270.99" x2="546.43" y2="728.88" stroke="hsl(69 85% 62%)"/>
<line x1="739.35" y1="279.83" x2="159.11" y2="667.53" stroke="hsl(71 85% 62%)"/>
<line x1="742.38" y1="288.75" x2="57.62" y2="288.75" stroke="hsl(72 85% 62%)"/>
<line x1="745.18" y1="297.75" x2="362.37" y2="41.97" stroke="hsl(74 85% 62%)"/>
<line x1="747.73" y1="306.83" x2="711.77" y2="220.00" stroke="hsl(75 85% 62%)"/>
<line x1="750.05" y1="315.96" x2="691.25" y2="611.60" stroke="hsl(77 85% 62%)"/>
<line x1="752.13" y1="325.15" x2="325.15" y2="752.13" stroke="hsl(78 85% 62%)"/>
<line x1="753.97" y1="334.40" x2="47.87" y2="474.85" stroke="hsl(80 85% 62%)"/>
<line x1="755.57" y1="343.68" x2="188.40" y2="108.75" stroke="hsl(81 85% 62%)"/>
<line x1="756.92" y1="353.01" x2="580.00" y2="88.23" stroke="hsl(83 85% 62%)"/>
<line x1="758.03" y1="362.37" x2="758.03" y2="437.63" stroke="hsl(84 85% 62%)"/>
<line x1="758.89" y1="371.75" x2="511.25" y2="742.38" stroke="hsl(86 85% 62%)"/>
<line x1="759.51" y1="381.16" x2="132.47" y2="640.89" stroke="hsl(87 85% 62%)"/>
<line x1="759.88" y1="390.58" x2="71.12" y2="253.57" stroke="hsl(89 85% 62%)"/>
<line x1="760.00" y1="400.00" x2="400.00" y2="40.00" stroke="hsl(90 85% 62%)"/>
<line x1="759.88" y1="409.42" x2="728.88" y2="253.57" stroke="hsl(92 85% 62%)"/>
<line x1="759.51" y1="418.84" x2="667.53" y2="640.89" stroke="hsl(93 85% 62%)"/>
<line x1="758.89" y1="428.25" x2="288.75" y2="742.38" stroke="hsl(95 85% 62%)"/>
<line x1="758.03" y1="437.63" x2="41.97" y2="437.63" stroke="hsl(96 85% 62%)"/>
<line x1="756.92" y1="446.99" x2="220.00" y2="88.23" stroke="hsl(98 85% 62%)"/>
<line x1="755.57" y1="456.32" x2="611.60" y2="108.75" stroke="hsl(99 85% 62%)"/>
<line x1="753.97" y1="465.60" x2="752.13" y2="474.85" stroke="hsl(101 85% 62%)"/>
<line x1="752.13" y1="474.85" x2="474.85" y2="752.13" stroke="hsl(102 85% 62%)"/>
<line x1="750.05" y1="484.04" x2="108.75" y2="611.60" stroke="hsl(104 85% 62%)"/>
<line x1="747.73" y1="493.17" x2="88.23" y2="220.00" stroke="hsl(105 85% 62%)"/>
<line x1="745.18" y1="502.25" x2="437.63" y2="41.97" stroke="hsl(107 85% 62%)"/>
<line x1="742.38" y1="511.25" x2="742.38" y2="288.75" stroke="hsl(108 85% 62%)"/>
<line x1="739.35" y1="520.17" x2="640.89" y2="667.53" stroke="hsl(110 85% 62%)"/>
<line x1="736.09" y1="529.01" x2="253.57" y2="728.88" stroke="hsl(111 85% 62%)"/>
<line x1="732.60" y1="537.77" x2="40.00" y2="400.00" stroke="hsl(113 85% 62%)"/>
<line x1="728.88" y1="546.43" x2="253.57" y2="71.12" stroke="hsl(114 85% 62%)"/>
<line x1="724.93" y1="554.98" x2="640.89" y2="132.47" stroke="hsl(116 85% 62%)"/>
<line x1="720.76" y1="563.44" x2="742.38" y2="511.25" stroke="hsl(117 85% 62%)"/>
<line x1="716.37" y1="571.78" x2="437.63" y2="758.03" stroke="hsl(119 85% 62%)"/>
<line x1="711.77" y1="580.00" x2="88.23" y2="580.00" stroke="hsl(120 85% 62%)"/>
<line x1="706.95" y1="588.10" x2="108.75" y2="188.40" stroke="hsl(122 85% 62%)"/>
<line x1="701.92" y1="596.07" x2="474.85" y2="47.87" stroke="hsl(123 85% 62%)"/>
<line x1="696.69" y1="603.91" x2="752.13" y2="325.15" stroke="hsl(125 85% 62%)"/>
<line x1="691.25" y1="611.60" x2="611.60" y2="691.25" stroke="hsl(126 85% 62%)"/>
<line x1="685.61" y1="619.15" x2="220.00" y2="711.77" stroke="hsl(128 85% 62%)"/>
<line x1="679.77" y1="626.56" x2="41.97" y2="362.37" stroke="hsl(129 85% 62%)"/>
<line x1="673.75" y1="633.80" x2="288.75" y2="57.62" stroke="hsl(131 85% 62%)"/>
<line x1="667.53" y1="640.89" x2="667.53" y2="159.11" stroke="hsl(132 85% 62%)"/>
<line x1="661.13" y1="647.81" x2="728.88" y2="546.43" stroke="hsl(134 85% 62%)"/>
<line x1="654.56" y1="654.56" x2="400.00" y2="760.00" stroke="hsl(135 85% 62%)"/>
<line x1="647.81" y1="661.13" x2="71.12" y2="546.43" stroke="hsl(137 85% 62%)"/>
<line x1="640.89" y1="667.53" x2="132.47" y2="159.11" stroke="hsl(138 85% 62%)"/>
<line x1="633.80" y1="673.75" x2="511.25" y2="57.62" stroke="hsl(140 85% 62%)"/>
<line x1="626.56" y1="679.77" x2="758.03" y2="362.37" stroke="hsl(141 85% 62%)"/>
<line x1="619.15" y1="685.61" x2="580.00" y2="711.77" stroke="hsl(143 85% 62%)"/>
<line x1="611.60" y1="691.25" x2="188.40" y2="691.25" stroke="hsl(144 85% 62%)"/>
<line x1="603.91" y1="696.69" x2="47.87" y2="325.15" stroke="hsl(146 85% 62%)"/>
<line x1="596.07" y1="701.92" x2="325.15" y2="47.87" stroke="hsl(147 85% 62%)"/>
<line x1="588.10" y1="706.95" x2="691.25" y2="188.40" stroke="hsl(149 85% 62%)"/>
<line x1="580.00" y1="711.77" x2="711.77" y2="580.00" stroke="hsl(150 85% 62%)"/>
<line x1="571.78" y1="716.37" x2="362.37" y2="758.03" stroke="hsl(152 85% 62%)"/>
<line x1="563.44" y1="720.76" x2="57.62" y2="511.25" stroke="hsl(153 85% 62%)"/>
<line x1="554.98" y1="724.93" x2="159.11" y2="132.47" stroke="hsl(155 85% 62%)"/>
<line x1="546.43" y1="728.88" x2="546.43" y2="71.12" stroke="hsl(156 85% 62%)"/>
<line x1="537.77" y1="732.60" x2="760.00" y2="400.00" stroke="hsl(158 85% 62%)"/>
<line x1="529.01" y1="736.09" x2="546.43" y2="728.88" stroke="hsl(159 85% 62%)"/>
<line x1="520.17" y1="739.35" x2="159.11" y2="667.53" stroke="hsl(161 85% 62%)"/>
<line x1="511.25" y1="742.38" x2="57.62" y2="288.75" stroke="hsl(162 85% 62%)"/>
<line x1="502.25" y1="745.18" x2="362.37" y2="41.97" stroke="hsl(164 85% 62%)"/>
<line x1="493.17" y1="747.73" x2="711.77" y2="220.00" stroke="hsl(165 85% 62%)"/>
<line x1="484.04" y1="750.05" x2="691.25" y2="611.60" stroke="hsl(167 85% 62%)"/>
<line x1="474.85" y1="752.13" x2="325.15" y2="752.13" stroke="hsl(168 85% 62%)"/>
<line x1="465.60" y1="753.97" x2="47.87" y2="474.85" stroke="hsl(170 85% 62%)"/>
<line x1="456.32" y1="755.57" x2="188.40" y2="108.75" stroke="hsl(171 85% 62%)"/>
<line x1="446.99" y1="756.92" x2="580.00" y2="88.23" stroke="hsl(173 85% 62%)"/>
<line x1="437.63" y1="758.03" x2="758.03" y2="437.63" stroke="hsl(174 85% 62%)"/>
<line x1="428.25" y1="758.89" x2="511.25" y2="742.38" stroke="hsl(176 85% 62%)"/>
<line x1="418.84" y1="759.51" x2="132.47" y2="640.89" stroke="hsl(177 85% 62%)"/>
<line x1="409.42" y1="759.88" x2="71.12" y2="253.57" stroke="hsl(179 85% 62%)"/>
<line x1="400.00" y1="760.00" x2="400.00" y2="40.00" stroke="hsl(180 85% 62%)"/>
<line x1="390.58" y1="759.88" x2="728.88" y2="253.57" stroke="hsl(182 85% 62%)"/>
<line x1="381.16" y1="759.51" x2="667.53" y2="640.89" stroke="hsl(183 85% 62%)"/>
<line x1="371.75" y1="758.89" x2="288.75" y2="742.38" stroke="hsl(185 85% 62%)"/>
<line x1="362.37" y1="758.03" x2="41.97" y2="437.63" stroke="hsl(186 85% 62%)"/>
<line x1="353.01" y1="756.92" x2="220.00" y2="88.23" stroke="hsl(188 85% 62%)"/>
<line x1="343.68" y1="755.57" x2="611.60" y2="108.75" stroke="hsl(189 85% 62%)"/>
<line x1="334.40" y1="753.97" x2="752.13" y2="474.85" stroke="hsl(191 85% 62%)"/>
<line x1="325.15" y1="752.13" x2="474.85" y2="752.13" stroke="hsl(192 85% 62%)"/>
<line x1="315.96" y1="750.05" x2="108.75" y2="611.60" stroke="hsl(194 85% 62%)"/>
<line x1="306.83" y1="747.73" x2="88.23" y2="220.00" stroke="hsl(195 85% 62%)"/>
<line x1="297.75" y1="745.18" x2="437.63" y2="41.97" stroke="hsl(197 85% 62%)"/>
<line x1="288.75" y1="742.38" x2="742.38" y2="288.75" stroke="hsl(198 85% 62%)"/>
<line x1="279.83" y1="739.35" x2="640.89" y2="667.53" stroke="hsl(200 85% 62%)"/>
<line x1="270.99" y1="736.09" x2="253.57" y2="728.88" stroke="hsl(201 85% 62%)"/>
<line x1="262.23" y1="732.60" x2="40.00" y2="400.00" stroke="hsl(203 85% 62%)"/>
<line x1="253.57" y1="728.88" x2="253.57" y2="71.12" stroke="hsl(204 85% 62%)"/>
<line x1="245.02" y1="724.93" x2="640.89" y2="132.47" stroke="hsl(206 85% 62%)"/>
<line x1="236.56" y1="720.76" x2="742.38" y2="511.25" stroke="hsl(207 85% 62%)"/>
<line x1="228.22" y1="716.37" x2="437.63" y2="758.03" stroke="hsl(209 85% 62%)"/>
<line x1="220.00" y1="711.77" x2="88.23" y2="580.00" stroke="hsl(210 85% 62%)"/>
<line x1="211.90" y1="706.95" x2="108.75" y2="188.40" stroke="hsl(212 85% 62%)"/>
<line x1="203.93" y1="701.92" x2="474.85" y2="47.87" stroke="hsl(213 85% 62%)"/>
<line x1="196.09" y1="696.69" x2="752.13" y2="325.15" stroke="hsl(215 85% 62%)"/>
<line x1="188.40" y1="691.25" x2="611.60" y2="691.25" stroke="hsl(216 85% 62%)"/>
<line x1="180.85" y1="685.61" x2="220.00" y2="711.77" stroke="hsl(218 85% 62%)"/>
<line x1="173.44" y1="679.77" x2="41.97" y2="362.37" stroke="hsl(219 85% 62%)"/>
<line x1="166.20" y1="673.75" x2="288.75" y2="57.62" stroke="hsl(221 85% 62%)"/>
<line x1="159.11" y1="667.53" x2="667.53" y2="159.11" stroke="hsl(222 85% 62%)"/>
<line x1="152.19" y1="661.13" x2="728.88" y2="546.43" stroke="hsl(224 85% 62%)"/>
<line x1="145.44" y1="654.56" x2="400.00" y2="760.00" stroke="hsl(225 85% 62%)"/>
<line x1="138.87" y1="647.81" x2="71.12" y2="546.43" stroke="hsl(227 85% 62%)"/>
<line x1="132.47" y1="640.89" x2="132.47" y2="159.11" stroke="hsl(228 85% 62%)"/>
<line x1="126.25" y1="633.80" x2="511.25" y2="57.62" stroke="hsl(230 85% 62%)"/>
<line x1="120.23" y1="626.56" x2="758.03" y2="362.37" stroke="hsl(231 85% 62%)"/>
<line x1="114.39" y1="619.15" x2="580.00" y2="711.77" stroke="hsl(233 85% 62%)"/>
<line x1="108.75" y1="611.60" x2="188.40" y2="691.25" stroke="hsl(234 85% 62%)"/>
<line x1="103.31" y1="603.91" x2="47.87" y2="325.15" stroke="hsl(236 85% 62%)"/>
<line x1="98.08" y1="596.07" x2="325.15" y2="47.87" stroke="hsl(237 85% 62%)"/>
<line x1="93.05" y1="588.10" x2="691.25" y2="188.40" stroke="hsl(239 85% 62%)"/>
<line x1="88.23" y1="580.00" x2="711.77" y2="580.00" stroke="hsl(240 85% 62%)"/>
<line x1="83.63" y1="571.78" x2="362.37" y2="758.03" stroke="hsl(242 85% 62%)"/>
<line x1="79.24" y1="563.44" x2="57.62" y2="511.25" stroke="hsl(243 85% 62%)"/>
<line x1="75.07" y1="554.98" x2="159.11" y2="132.47" stroke="hsl(245 85% 62%)"/>
<line x1="71.12" y1="546.43" x2="546.43" y2="71.12" stroke="hsl(246 85% 62%)"/>
<line x1="67.40" y1="537.77" x2="760.00" y2="400.00" stroke="hsl(248 85% 62%)"/>
<line x1="63.91" y1="529.01" x2="546.43" y2="728.88" stroke="hsl(249 85% 62%)"/>
<line x1="60.65" y1="520.17" x2="159.11" y2="667.53" stroke="hsl(251 85% 62%)"/>
<line x1="57.62" y1="511.25" x2="57.62" y2="288.75" stroke="hsl(252 85% 62%)"/>
<line x1="54.82" y1="502.25" x2="362.37" y2="41.97" stroke="hsl(254 85% 62%)"/>
<line x1="52.27" y1="493.17" x2="711.77" y2="220.00" stroke="hsl(255 85% 62%)"/>
<line x1="49.95" y1="484.04" x2="691.25" y2="611.60" stroke="hsl(257 85% 62%)"/>
<line x1="47.87" y1="474.85" x2="325.15" y2="752.13" stroke="hsl(258 85% 62%)"/>
<line x1="46.03" y1="465.60" x2="47.87" y2="474.85" stroke="hsl(260 85% 62%)"/>
<line x1="44.43" y1="456.32" x2="188.40" y2="108.75" stroke="hsl(261 85% 62%)"/>
<line x1="43.08" y1="446.99" x2="580.00" y2="88.23" stroke="hsl(263 85% 62%)"/>
<line x1="41.97" y1="437.63" x2="758.03" y2="437.63" stroke="hsl(264 85% 62%)"/>
<line x1="41.11" y1="428.25" x2="511.25" y2="742.38" stroke="hsl(266 85% 62%)"/>
<line x1="40.49" y1="418.84" x2="132.47" y2="640.89" stroke="hsl(267 85% 62%)"/>
<line x1="40.12" y1="409.42" x2="71.12" y2="253.57" stroke="hsl(269 85% 62%)"/>
<line x1="40.00" y1="400.00" x2="400.00" y2="40.00" stroke="hsl(270 85% 62%)"/>
<line x1="40.12" y1="390.58" x2="728.88" y2="253.57" stroke="hsl(272 85% 62%)"/>
<line x1="40.49" y1="381.16" x2="667.53" y2="640.89" stroke="hsl(273 85% 62%)"/>
<line x1="41.11" y1="371.75" x2="288.75" y2="742.38" stroke="hsl(275 85% 62%)"/>
<line x1="41.97" y1="362.37" x2="41.97" y2="437.63" stroke="hsl(276 85% 62%)"/>
<line x1="43.08" y1="353.01" x2="220.00" y2="88.23" stroke="hsl(278 85% 62%)"/>
<line x1="44.43" y1="343.68" x2="611.60" y2="108.75" stroke="hsl(279 85% 62%)"/>
<line x1="46.03" y1="334.40" x2="752.13" y2="474.85" stroke="hsl(281 85% 62%)"/>
<line x1="47.87" y1="325.15" x2="474.85" y2="752.13" stroke="hsl(282 85% 62%)"/>
<line x1="49.95" y1="315.96" x2="108.75" y2="611.60" stroke="hsl(284 85% 62%)"/>
<line x1="52.27" y1="306.83" x2="88.23" y2="220.00" stroke="hsl(285 85% 62%)"/>
<line x1="54.82" y1="297.75" x2="437.63" y2="41.97" stroke="hsl(287 85% 62%)"/>
<line x1="57.62" y1="288.75" x2="742.38" y2="288.75" stroke="hsl(288 85% 62%)"/>
<line x1="60.65" y1="279.83" x2="640.89" y2="667.53" stroke="hsl(290 85% 62%)"/>
<line x1="63.91" y1="270.99" x2="253.57" y2="728.88" stroke="hsl(291 85% 62%)"/>
<line x1="67.40" y1="262.23" x2="40.00" y2="400.00" stroke="hsl(293 85% 62%)"/>
<line x1="71.12" y1="253.57" x2="253.57" y2="71.12" stroke="hsl(294 85% 62%)"/>
<line x1="75.07" y1="245.02" x2="640.89" y2="132.47" stroke="hsl(296 85% 62%)"/>
<line x1="79.24" y1="236.56" x2="742.38" y2="511.25" stroke="hsl(297 85% 62%)"/>
<line x1="83.63" y1="228.22" x2="437.63" y2="758.03" stroke="hsl(299 85% 62%)"/>
<line x1="88.23" y1="220.00" x2="88.23" y2="580.00" stroke="hsl(300 85% 62%)"/>
<line x1="93.05" y1="211.90" x2="108.75" y2="188.40" stroke="hsl(302 85% 62%)"/>
<line x1="98.08" y1="203.93" x2="474.85" y2="47.87" stroke="hsl(303 85% 62%)"/>
<line x1="103.31" y1="196.09" x2="752.13" y2="325.15" stroke="hsl(305 85% 62%)"/>
<line x1="108.75" y1="188.40" x2="611.60" y2="691.25" stroke="hsl(306 85% 62%)"/>
<line x1="114.39" y1="180.85" x2="220.00" y2="711.77" stroke="hsl(308 85% 62%)"/>
<line x1="120.23" y1="173.44" x2="41.97" y2="362.37" stroke="hsl(309 85% 62%)"/>
<line x1="126.25" y1="166.20" x2="288.75" y2="57.62" stroke="hsl(311 85% 62%)"/>
<line x1="132.47" y1="159.11" x2="667.53" y2="159.11" stroke="hsl(312 85% 62%)"/>
<line x1="138.87" y1="152.19" x2="728.88" y2="546.43" stroke="hsl(314 85% 62%)"/>
<line x1="145.44" y1="145.44" x2="400.00" y2="760.00" stroke="hsl(315 85% 62%)"/>
<line x1="152.19" y1="138.87" x2="71.12" y2="546.43" stroke="hsl(317 85% 62%)"/>
<line x1="159.11" y1="132.47" x2="132.47" y2="159.11" stroke="hsl(318 85% 62%)"/>
<line x1="166.20" y1="126.25" x2="511.25" y2="57.62" stroke="hsl(320 85% 62%)"/>
<line x1="173.44" y1="120.23" x2="758.03" y2="362.37" stroke="hsl(321 85% 62%)"/>
<line x1="180.85" y1="114.39" x2="580.00" y2="711.77" stroke="hsl(323 85% 62%)"/>
<line x1="188.40" y1="108.75" x2="188.40" y2="691.25" stroke="hsl(324 85% 62%)"/>
<line x1="196.09" y1="103.31" x2="47.87" y2="325.15" stroke="hsl(326 85% 62%)"/>
<line x1="203.93" y1="98.08" x2="325.15" y2="47.87" stroke="hsl(327 85% 62%)"/>
<line x1="211.90" y1="93.05" x2="691.25" y2="188.40" stroke="hsl(329 85% 62%)"/>
<line x1="220.00" y1="88.23" x2="711.77" y2="580.00" stroke="hsl(330 85% 62%)"/>
<line x1="228.22" y1="83.63" x2="362.37" y2="758.03" stroke="hsl(332 85% 62%)"/>
<line x1="236.56" y1="79.24" x2="57.62" y2="511.25" stroke="hsl(333 85% 62%)"/>
<line x1="245.02" y1="75.07" x2="159.11" y2="132.47" stroke="hsl(335 85% 62%)"/>
<line x1="253.57" y1="71.12" x2="546.43" y2="71.12" stroke="hsl(336 85% 62%)"/>
<line x1="262.23" y1="67.40" x2="760.00" y2="400.00" stroke="hsl(338 85% 62%)"/>
<line x1="270.99" y1="63.91" x2="546.43" y2="728.88" stroke="hsl(339 85% 62%)"/>
<line x1="279.83" y1="60.65" x2="159.11" y2="667.53" stroke="hsl(341 85% 62%)"/>
<line x1="288.75" y1="57.62" x2="57.62" y2="288.75" stroke="hsl(342 85% 62%)"/>
<line x1="297.75" y1="54.82" x2="362.37" y2="41.97" stroke="hsl(344 85% 62%)"/>
<line x1="306.83" y1="52.27" x2="711.77" y2="220.00" stroke="hsl(345 85% 62%)"/>
<line x1="315.96" y1="49.95" x2="691.25" y2="611.60" stroke="hsl(347 85% 62%)"/>
<line x1="325.15" y1="47.87" x2="325.15" y2="752.13" stroke="hsl(348 85% 62%)"/>
<line x1="334.40" y1="46.03" x2="47.87" y2="474.85" stroke="hsl(350 85% 62%)"/>
<line x1="343.68" y1="44.43" x2="188.40" y2="108.75" stroke="hsl(351 85% 62%)"/>
<line x1="353.01" y1="43.08" x2="580.00" y2="88.23" stroke="hsl(353 85% 62%)"/>
<line x1="362.37" y1="41.97" x2="758.03" y2="437.63" stroke="hsl(354 85% 62%)"/>
<line x1="371.75" y1="41.11" x2="511.25" y2="742.38" stroke="hsl(356 85% 62%)"/>
<line x1="381.16" y1="40.49" x2="132.47" y2="640.89" stroke="hsl(357 85% 62%)"/>
<line x1="390.58" y1="40.12" x2="71.12" y2="253.57" stroke="hsl(359 85% 62%)"/>
</g>
<text x="400" y="820" fill="#e6edf3" font-family="Georgia, serif" font-size="26" text-anchor="middle">n = 43</text>
<text x="400" y="855" fill="#8b949e" font-family="Georgia, serif" font-size="18" font-style="italic" text-anchor="middle">assinado por vitornasciment123@gmail.com</text>
</svg>